<svg xmlns="http://www.w3.org/2000/svg" viewBox="0 0 256 256">
  <path fill="#FF9900" d="M128 0C57.3 0 0 57.3 0 128s57.3 128 128 128 128-57.3 128-128S198.7 0 128 0zm0 230.4c-56.3 0-102.4-46.1-102.4-102.4S71.7 25.6 128 25.6s102.4 46.1 102.4 102.4-46.1 102.4-102.4 102.4z"/>
  <path fill="#232F3E" d="M86.3 172.2l-11.8-4.6c-1.5-.6-2.4-2.1-2.4-3.7V92.1c0-1.6.9-3.1 2.4-3.7l11.8-4.6c1.5-.6 3.2.3 3.8 1.8l7.9 20.3c.6 1.5-.3 3.2-1.8 3.8l-9.2 3.6v19.2l9.2 3.6c1.5.6 2.4 2.3 1.8 3.8l-7.9 20.3c-.6 1.5-2.3 2.4-3.8 1.8zm83.4-75.1l-11.8 4.6c-1.5.6-2.4 2.1-2.4 3.7v64.2c0 1.6.9 3.1 2.4 3.7l11.8 4.6c1.5.6 3.2-.3 3.8-1.8l7.9-20.3c.6-1.5-.3-3.2-1.8-3.8l-9.2-3.6V109.1l9.2-3.6c1.5-.6 2.4-2.3 1.8-3.8l-7.9-20.3c-.6-1.5-2.3-2.4-3.8-1.8z"/>
</svg>