<svg xmlns="http://www.w3.org/2000/svg" viewBox="0 0 256 256">
  <path fill="#181717" d="M128 0C57.3 0 0 57.3 0 128s57.3 128 128 128 128-57.3 128-128S198.7 0 128 0zm0 230.4c-56.3 0-102.4-46.1-102.4-102.4S71.7 25.6 128 25.6s102.4 46.1 102.4 102.4-46.1 102.4-102.4 102.4z"/>
  <path fill="#FFFFFF" d="M128 57.6c-38.8 0-70.4 31.6-70.4 70.4 0 31.1 20.2 57.5 48.1 66.8 3.5.6 4.8-1.5 4.8-3.4 0-1.7-.1-6.1-.1-12-19.6 4.2-23.7-9.4-23.7-9.4-3.2-8.1-7.8-10.2-7.8-10.2-6.4-4.4.5-4.3.5-4.3 7.1.5 10.8 7.3 10.8 7.3 6.3 10.8 16.5 7.7 20.5 5.9.6-4.6 2.5-7.7 4.5-9.5-15.7-1.8-32.2-7.9-32.2-35 0-7.7 2.8-14.1 7.3-19-1-1.8-3.2-9 .7-18.7 0 0 6-1.9 19.5 7.3 5.6-1.6 11.7-2.4 17.8-2.4s12.2.8 17.8 2.4c13.5-9.2 19.5-7.3 19.5-7.3 3.9 9.7 1.7 16.9.7 18.7 4.6 4.9 7.3 11.3 7.3 19 0 27.2-16.5 33.2-32.3 35 2.5 2.2 4.8 6.5 4.8 13.1 0 9.5-.1 17.1-.1 19.4 0 1.9 1.3 4.1 4.8 3.4 27.9-9.3 48.1-35.7 48.1-66.8 0-38.8-31.6-70.4-70.4-70.4z"/>
</svg>