<svg xmlns="http://www.w3.org/2000/svg" viewBox="0 0 256 256">
  <path fill="#000000" d="M128 0C57.3 0 0 57.3 0 128s57.3 128 128 128 128-57.3 128-128S198.7 0 128 0zm0 230.4c-56.3 0-102.4-46.1-102.4-102.4S71.7 25.6 128 25.6s102.4 46.1 102.4 102.4-46.1 102.4-102.4 102.4z"/>
  <path fill="#000000" d="M108.8 76.8H83.2c-7.1 0-12.8 5.7-12.8 12.8v76.8c0 7.1 5.7 12.8 12.8 12.8h25.6c7.1 0 12.8-5.7 12.8-12.8V89.6c0-7.1-5.7-12.8-12.8-12.8zm-12.8 76.8H96V89.6h-12.8v64zm51.2-76.8h-25.6c-7.1 0-12.8 5.7-12.8 12.8v76.8c0 7.1 5.7 12.8 12.8 12.8h25.6c7.1 0 12.8-5.7 12.8-12.8V89.6c0-7.1-5.7-12.8-12.8-12.8zm-12.8 76.8h-12.8V89.6h12.8v64z"/>
</svg>