<svg xmlns="http://www.w3.org/2000/svg" viewBox="0 0 256 256">
  <path fill="#FF4A00" d="M128 0C57.3 0 0 57.3 0 128s57.3 128 128 128 128-57.3 128-128S198.7 0 128 0zm0 230.4c-56.3 0-102.4-46.1-102.4-102.4S71.7 25.6 128 25.6s102.4 46.1 102.4 102.4-46.1 102.4-102.4 102.4z"/>
  <path fill="#FF4A00" d="M179.2 115.2h-38.4V89.6c0-7.1-5.7-12.8-12.8-12.8s-12.8 5.7-12.8 12.8v25.6H76.8c-7.1 0-12.8 5.7-12.8 12.8s5.7 12.8 12.8 12.8h38.4v25.6c0 7.1 5.7 12.8 12.8 12.8s12.8-5.7 12.8-12.8v-25.6h38.4c7.1 0 12.8-5.7 12.8-12.8s-5.7-12.8-12.8-12.8z"/>
</svg>